# xmcd
#
# Track frame offsets:
#	182
#	25757
#	51482
#	76007
#	107657
#	135257
#	141577
#	173507
#	192857
#
# Disc length: 3059 seconds
#
# Revision: 4
# Processed by: cddbd v1.5.2PL0 Copyright (c) Steve Scherf et al.
# Submitted via: audiograbber 1.83.01
#
DISCID=6e0bf109
DTITLE=Wallace, Bennie - Bennie Wallace plays Monk
DYEAR=1981
DGENRE=Jazz
TTITLE0=Skippy
TTITLE1=Ask me now
TTITLE2=Evidence
TTITLE3=Round about midnight
TTITLE4=Straight no chaser
TTITLE5=Prelude
TTITLE6=Ugly beauty
TTITLE7=Variation on a theme (Trinkle tinkle)
TTITLE8=Round about midnight (Alternate take)
EXTD=
EXTT0=
EXTT1=
EXTT2=
EXTT3=
EXTT4=
EXTT5=
EXTT6=
EXTT7=
EXTT8=
PLAYORDER=
